<?xml version="1.0" encoding="UTF-8"?>
<svg id="Capa_1" data-name="Capa 1" xmlns="http://www.w3.org/2000/svg" viewBox="0 0 600 600">
  <defs>
    <style>
      .cls-1 {
        fill: #dc2c00;
      }

      .cls-2 {
        fill: #5b5b5b;
      }

      .cls-3 {
        fill: #5a5a5a;
      }

      .cls-4 {
        fill: #5c5c5c;
      }

      .cls-5 {
        fill: #fe9000;
      }

      .cls-6 {
        fill: #fec300;
      }
    </style>
  </defs>
  <path class="cls-3" d="M112.73,543.16c1.24,4.55.95,9.09.38,14.25l-38.91.36-.33,39.6c-4.73.75-9.3.54-14.83.16l-.15-96.58,58.62-.03c.71,5.32.7,9.72-.19,14.4l-43.19.39c-.07,9.73-.57,18.33.28,27.38l38.33.09Z"/>
  <path class="cls-3" d="M439.74,599.85c-12.58-.7-22.29-7.61-26.41-18.27,3.99-2.66,7.74-4.38,12.86-5.6,5.28,10.41,17.71,14.08,27.24,7.34,2.14-1.51,1.79-4.92,1.1-6.95-.61-1.8-2.77-3.55-5.35-4.31l-21.34-6.26c-7.39-2.17-11.99-8.48-12.45-15.24-.5-7.39,2.63-13.98,9.53-17.81,14.42-7.99,37.18-4.99,43.83,10.8-4.23,2.38-7.63,3.77-12.47,5.3-5.68-7.94-16.23-10.58-24.16-4.56-2.11,1.6-1.75,4.99-.89,6.89,3.29,7.31,35.08,4.13,38.7,23.29,1.36,7.22-.83,13.33-5.98,17.96-6.39,5.75-14.62,7.97-24.23,7.44Z"/>
  <path class="cls-2" d="M170.22,597.25c-5.08.94-9.64.76-14.67.04l-.16-66.01c4.72-1.09,9.02-.63,13.93-.49.71,3.71-.71,6.53.7,10.37,4.88-10.01,16.16-14.83,27.23-11.37.98,5.15.81,10.08.02,15.06-6.17-1.37-11.96-3-17.85.5-4.23,2.51-8.84,8.06-8.9,14.76l-.3,37.14Z"/>
  <path class="cls-3" d="M141.59,597.38c-5.36.8-9.53.46-14.72.17l-.23-66.73c5.28-.22,9.6-.45,14.96.13v66.43Z"/>
  <path class="cls-4" d="M129.63,500.41c5.71-2.82,11.71.18,13.72,5.04,1.91,4.61.08,10.46-4.72,12.67-4.77,2.2-10.58,1.09-13.38-4.35-1.94-3.78-1.55-10.44,4.37-13.36Z"/>
  <path class="cls-3" d="M325.63,533.64c-12.49-8.32-27.97-6.79-38.6,5.03l.19-37.41c-5.16-.62-9.49-.96-14.81.24l-.02,95.74c4.64,1.1,9.12.59,13.76.15.82-2.96-.53-5.78,1.78-7.67,8.21,11.12,23.08,13.09,35.21,6.55,12.04-6.5,17.76-19.03,18.01-31.22.25-12.31-4.89-24.32-15.52-31.41ZM307.06,586.23c-11.77.36-20.45-9.51-20.59-21.65-.13-11.94,7.72-21.99,19.28-22.42,11.11-.42,20.29,8.83,20.51,21.7.22,12.56-8.33,22.03-19.2,22.36Z"/>
  <path class="cls-3" d="M406.76,554.25c-.03-13.84-10.33-23.57-23.62-25.33-13.05-1.72-26.13,1.2-34.4,12.1,2.79,3.5,6.44,5.88,10.88,7.77,6.8-7.36,16.71-10.27,25.47-5.38,5.01,2.79,8.24,7.79,6.88,14.08-9.8-3.47-19.57-4.4-29.17-1.54-10.79,3.22-17.33,11.79-16.64,22.6.62,9.8,7.48,18.44,18.92,20.74,10.77,2.16,20.83-1.13,26.3-9.92,1.98,3.21.74,5.42,1.62,8.08,4.72.4,9.18.81,13.85-.15l-.08-43.04ZM369.68,586.99c-4.75-1.17-7.78-4.68-8.27-8.83-.46-3.92,1.58-8.32,5.96-10.37,7.61-3.55,16.75-2.78,25.01,2.02-.63,12.35-11.85,19.85-22.71,17.18Z"/>
  <path class="cls-3" d="M253.13,536.74c-13.42-12-34.98-11.13-47.16,2.46-12.49,13.93-12.39,35.53-.33,49.62,7.84,9.17,19.52,12.18,31.53,10.68,9.59-1.2,19.29-7.15,24.9-17.3-3.85-2.82-7.92-5.03-12.98-5.78-5.5,9.2-14.51,11.65-23.25,9.18-7.55-2.14-14.05-8.77-13.9-18.12l51.28-.38c1.08-11.13-1.48-22.68-10.08-30.36ZM212.88,555.8c1.27-8.61,9-14.21,16.42-14.58,9.33-.46,17.09,4.04,19.16,14.35l-35.58.22Z"/>
  <path class="cls-3" d="M504.37,585.6c-7.46-2.08-13.8-8.67-13.9-18.16l49.32-.03c5.04-17.12-4.66-34.4-22.59-38.18-21.04-4.43-39.68,9.43-41.68,30.83-1.62,17.3,7.21,33.27,23.26,38.17,15.8,4.82,33.37-.47,41.75-15.97-3.76-2.93-7.91-5.29-12.82-5.81-5.51,9.16-14.52,11.61-23.33,9.16ZM507.84,541.22c9.44-.43,17.27,4.26,19.3,14.4l-35.74.19c1.34-8.64,9.09-14.25,16.44-14.59Z"/>
  <g>
    <path class="cls-1" d="M365.24,387.9l-6.57.13c-19.31-8.09-48.43-25.75-62.62-40.97-.23-.25-1.21-5.52-1.24-6.61,39.02-66.43,5.92-152.22-67.7-174.07l-3.44-3.97c4.03-63.06,34.13-121.76,84.61-162.41l110.43,133.96c19.22,23.31,32.43,50.04,38.34,79.35,14.77,73.21-25.46,145.72-91.8,174.58Z"/>
    <path class="cls-6" d="M223.67,162.41l2.62,6.76c-2.36,64.04,23.41,125.9,69.59,170.21.22.28,1.47,6.66,1.35,7.01-5.26,15.52-39,43.11-55.83,45.17-90.3-35.35-130.1-143.67-80.35-228.74,20.12-6.24,42.98-5.24,62.62-.4Z"/>
    <path class="cls-5" d="M365.24,387.9c-39.73,17.28-82.7,19.76-123.84,3.65.64-.89,1.55-1.77,3.1-2.5,21.07-9.94,38.77-25.22,51.53-45.7-50.71-47.09-76.68-113.23-72.36-180.94,35.71,8.81,65.35,35.28,79.24,65.69,18.01,39.42,14.12,80.59-6.77,115.21,20.38,19.75,44.37,32.93,69.1,44.59Z"/>
  </g>
</svg>