<?xml version="1.0" encoding="UTF-8"?>
<svg id="Capa_1" data-name="Capa 1" xmlns="http://www.w3.org/2000/svg" viewBox="0 0 600 600">
  <defs>
    <style>
      .cls-1 {
        fill: #f6de1e;
      }

      .cls-2 {
        fill: #010100;
      }
    </style>
  </defs>
  <path class="cls-1" d="M5.69,2.85h594.31v594.31H5.69V2.85ZM551.87,452.77c-7.4-37.05-40.28-53.64-71.74-67.47l-24.6-10.82c-5.47-2.4-10.42-5.37-15-9.07-5.96-4.8-8.96-11.36-9.23-18.98-.38-10.37,5.24-19.33,14.97-23.08,5.21-2.01,10.65-2.37,16.33-1.9,15.63,1.28,24.06,11.06,31.45,23.68l43.34-27.81c-11.76-21.41-29.24-36.69-53.17-42-14.01-3.11-28.12-3.61-42.31-1.56-33.59,4.86-60.49,27.6-64.94,62-1.3,10.04-.81,19.68,1.09,29.61,3.18,16.56,11.88,30.64,24.69,41.53,9.53,8.09,19.86,14.31,31.34,19.38l34.83,15.36c15.92,7.02,30.96,16.01,28.81,34.85-.93,8.18-6.46,15.45-14.56,19.55s-17.31,5.3-26.67,4.93c-14.8-.6-28.39-6.26-38.65-16.96-5.04-5-8.89-10.48-12.92-16.8l-45.35,26.26c12.46,25.1,34.78,43.43,61.83,51.49,31.27,9.33,71.5,8.05,99.75-9.91,28.59-18.18,37.12-50.19,30.71-82.28ZM162.19,499.51c11.29,24.09,30.98,41.32,56.27,47.64,20.15,5.03,41.4,4.59,61.13-1.59,20.94-6.56,36.6-21.75,43.9-42.25,3.92-11.01,5.49-21.85,5.86-33.81l.02-193.74h-55.86s-.01,192.01-.01,192.01c-.39,12.92-3.35,27.35-17.34,31.29-6.9,1.95-14.13,2.26-21.14.59-13.51-3.21-20.61-15.83-27.34-27.61l-45.48,27.47Z"/>
  <g>
    <path class="cls-2" d="M551.87,452.77c6.41,32.1-2.12,64.1-30.71,82.28-28.25,17.97-68.48,19.24-99.75,9.91-27.04-8.07-49.36-26.4-61.83-51.49l45.35-26.26c4.03,6.33,7.88,11.81,12.92,16.8,10.26,10.7,23.85,16.36,38.65,16.96,9.36.38,18.43-.75,26.67-4.93s13.63-11.37,14.56-19.55c2.15-18.84-12.88-27.83-28.81-34.85l-34.83-15.36c-11.49-5.07-21.81-11.29-31.34-19.38-12.81-10.88-21.52-24.97-24.69-41.53-1.9-9.93-2.39-19.57-1.09-29.61,4.45-34.39,31.34-57.14,64.94-62,14.19-2.05,28.3-1.55,42.31,1.56,23.93,5.32,41.41,20.59,53.17,42l-43.34,27.81c-7.39-12.62-15.82-22.4-31.45-23.68-5.67-.47-11.12-.1-16.33,1.9-9.73,3.75-15.35,12.71-14.97,23.08.28,7.62,3.27,14.18,9.23,18.98,4.59,3.69,9.54,6.66,15,9.07l24.6,10.82c31.46,13.83,64.34,30.43,71.74,67.47Z"/>
    <path class="cls-2" d="M162.19,499.51l45.48-27.47c6.72,11.79,13.82,24.4,27.34,27.61,7.01,1.66,14.24,1.35,21.14-.59,14-3.95,16.95-18.38,17.34-31.29v-192.02s55.87.01,55.87.01l-.02,193.74c-.37,11.95-1.94,22.8-5.86,33.81-7.3,20.5-22.96,35.68-43.9,42.25-19.72,6.18-40.98,6.62-61.13,1.59-25.3-6.31-44.99-23.54-56.27-47.64Z"/>
  </g>
</svg>