<?xml version="1.0" encoding="UTF-8"?>
<svg id="Capa_1" data-name="Capa 1" xmlns="http://www.w3.org/2000/svg" viewBox="0 0 600 600">
  <defs>
    <style>
      .cls-1 {
        fill: #8d999a;
      }

      .cls-2 {
        fill: #03e9bd;
      }

      .cls-3 {
        fill: #8a5cdc;
      }
    </style>
  </defs>
  <g>
    <path d="M180,400.33h-9.84l.33-16.5c5.96.39,11.48-2.93,11.48-9.06l-.02-95.39h21.74s-.4,96.97-.4,96.97c-.06,13.97-10.94,21.42-23.3,23.98Z"/>
    <path d="M195.32,264.6c-6.83,1.15-12.09-1.98-14.43-7.3s-.16-11.14,4.99-14.38c6.55-4.11,14.81-1.97,17.96,5.06,2.87,6.41.06,15.19-8.52,16.63Z"/>
  </g>
  <path d="M600,246.89v17.7h-53.12s0,36.39,0,36.39h42.28s-.28,17.56-.28,17.56l-41.81.14-.34,50.23-22.48-.11.06-122.82,71.75-.12c1.72,0,2.97.37,3.95,1.02Z"/>
  <path d="M491.74,264.42c12.55,13.7,14.34,29.52,14.13,46.41-.22,17.3-6.29,33.34-19.83,44.52-22.79,18.16-52.32,12.68-80.75,13.4v-122.68s35.3-.17,35.3-.17c1.73,0,3.13,1.26,5.06.89,17.08-.26,34.5,4.96,46.1,17.62ZM478.41,328.42c4.91-13.57,4.65-27.78.52-41.06-7.6-22.27-29.69-23.6-50.09-22.63v85.39c19.23.92,41.62.27,49.57-21.7Z"/>
  <g>
    <path d="M391.76,277.27c2.05,13.09-1.15,27.29-11.92,35.79-7.77,6.13-17.23,8.97-27.13,9.23l-22.21.59-.14,45.71-22.49.22v-122.92s36.32.19,36.32.19c3.64.02,7.14,1.68,10.96.55,18.91,2.84,33.42,10.26,36.62,30.63ZM369.54,287.38c.5-6.1-.58-12.72-4.54-17.04-3.27-3.57-8.98-5.6-13.78-5.63l-20.74-.14v40.4c8.02-.43,15.61.57,23.38-.35,8.72-1.03,14.94-8.16,15.69-17.23Z"/>
    <path d="M284.23,360.07c-8.41,9.1-20.48,10.51-32.5,10.05-19.39-.73-32.98-9.1-34.48-29.75l20.13.22c.45,9.47,7.79,14.66,16.41,13.59,4.17-.52,8.47.77,11.94-1.81,3.06-2.28,4.99-5.13,4.93-8.6-.34-19.94-50.85-3.8-51.47-37.84-.18-9.68,3.77-18.33,12.54-23.27,11.9-6.7,26.63-7.12,39.65-2.15,10.05,3.84,15.57,13.47,16.7,24.07l-19.61.36c-.85-8.05-7.01-12.49-14.69-11.94-4.07.29-8.08-.22-11.11,2.73-2.52,2.45-4.24,5.09-3.65,8.57,2.21,13.03,29.93,6.44,45.03,19.52,8.62,7.46,9.01,26.71.19,36.26Z"/>
  </g>
  <g>
    <path class="cls-3" d="M60,199.67c.82,1.3,2.4,1.26,4.2,1.73,22.54,5.87,37.75,26.66,37.01,49.68-13.53-7.81-30.72-4.81-40.81,7.11-10.09,11.93-10.2,29.37-.26,41.43-11.48,1.81-23.29.64-33.5-4.69-14.8-7.73-23.18-22.3-26.64-38.21v-12.79c2.26-12.42,7.7-23.13,17.36-31.81s14.16-8.57,24.93-12.45h17.7Z"/>
    <path class="cls-2" d="M60.14,299.62c6.51,7.89,16.37,12.24,26.59,11.71,10.22-.53,19.58-5.86,25.25-14.39,4.25,8.3,5.94,16.83,5.17,26.96-2.02,26.78-26.92,47.41-53.62,44.54-17.04-1.83-30.74-11.99-38.02-25.32-8.51-15.61-8.26-34.63,1.13-48.19,10.2,5.33,22.02,6.5,33.5,4.69Z"/>
    <circle class="cls-1" cx="85.06" cy="279.06" r="32.31"/>
  </g>
</svg>