<?xml version="1.0" encoding="UTF-8"?>
<svg id="Capa_1" data-name="Capa 1" xmlns="http://www.w3.org/2000/svg" viewBox="0 0 600 600">
  <defs>
    <style>
      .cls-1 {
        fill: #f46666;
      }

      .cls-2 {
        fill: #2f3949;
      }
    </style>
  </defs>
  <path class="cls-2" d="M199.91,170.49c64.91-22.81,134.94,5.1,166.85,65.9,4.46,8.51,8.18,15.93,9.85,25.82,2.4,14.15,12.82,46.87-5.99,59.63-7.04,4.78-18.24,5.15-26.09,2.46-12.74-4.37-18.92-18.17-18.12-30.69,1.93-30.08-25.47-62.29-52.58-71.16-40.15-13.14-82.72,2.39-100.77,38.56-17.71,35.48-7.91,65.55.84,100.98,3.01,12.19,18.05,38.26,25.81,48.94,50.7,69.9,143.99,99.89,225.82,65.41,8.39-3.53,15.82-5.88,23.73-10.91,14.14-8.98,35.45-23.24,45.63-36.44,5.46-7.08,12.47-12.64,16.9-21.1,4.52-8.64,11.69-15.61,14.88-24.9,5.56-16.17,14.21-30.65,16.34-47.97,3.41-27.79,2.64-55.23-.25-82.95-1.85-17.81-8.79-33.75-13.35-50.62-3.54-13.11-9.24-24.01-15.05-36.06-17.36-36.01-41.4-64.67-69.96-92.02-9.74-9.33-9.29-24.52-2.44-34.27s21.17-15.77,32.72-8.96c4.81,2.83,11.15,7.07,14.86,10.86l17.03,17.4,16.62,19.32,12.03,16.44c11.55,15.78,31.93,50.68,38.04,68.1l12.25,34.95c4.99,14.23,7.05,27.97,9.49,42.52,8.61,51.37,7.5,109.7-15.03,157.23-7.83,16.51-14.87,31.93-26.59,47.31-16.79,22.04-36.13,40.95-58.76,56.95-8.2,5.8-36.58,22.54-45.2,25.01-17.74,5.08-33.78,13.41-52.55,15.65-27.3,3.26-54.22,3.03-81.59.4-17.42-1.67-32.65-8.86-48.78-13.83-24.06-7.41-61.26-31.69-79.47-49.85-8.28-8.25-25.46-24.64-31.38-34.94-2.85-4.95-6.4-10.19-10.06-14.49-4.1-4.8-4.98-10.27-7.93-15.26-17.9-30.31-30.55-82.74-29.5-118.58.6-20.6,6.93-38.73,15.13-57.03,13.73-30.62,44.28-56.45,76.6-67.8Z"/>
  <path class="cls-1" d="M361.12,146.79c-16.71-13.24-30.78-19.26-49.54-26.74-44.81-17.85-92.66-16.61-137.23,1.87-8.38,3.47-15.57,6.01-23.36,10.83-14.09,8.71-35.82,23.64-45.72,36.49-5.44,7.06-12.42,12.59-16.83,20.97s-11.73,15.7-14.96,25.06c-5.59,16.18-14.25,30.68-16.35,48.03-3.36,27.76-2.63,55.19.28,82.87,1.93,18.35,9.12,34.74,13.81,52.15,5.28,19.62,22.03,49.94,33.68,67.29l8.43,12.55c25.42,37.85,66.31,53,47.29,81.49-7.11,10.65-21.58,17.73-34.29,9.7-5.01-3.16-11.54-8.02-15.64-12.19l-17.08-17.35-16.64-19.29c-14.67-17-42.76-63.64-50.07-84.53l-12.38-35.38c-4.93-14.1-6.97-27.67-9.36-42.1-5.73-34.57-7.39-68.36-1.3-102.68,3.45-19.46,7.57-36.72,16.47-54.54,5.4-10.81,8.63-22.5,17.19-32.02,2.33-2.59,1.97-7.78,4.87-10.18,5.22-4.31,23.1-32.01,50.03-52.09l19.61-14.63,19.77-11.05c7.88-4.4,15.02-7.99,23.47-10.72,16.1-5.19,31.09-12.22,48.25-14.26,27.77-3.3,55.3-3.12,83.15-.13,16.8,1.8,31.39,8.79,46.91,13.55,24.12,7.39,61.3,31.71,79.54,49.88,8.32,8.29,25.43,24.6,31.39,34.94,2.85,4.95,6.4,10.18,10.06,14.48,4.09,4.8,4.98,10.26,7.93,15.26,6.37,10.8,10.79,21.16,14.64,33.04,18.67,57.54,24.72,109.48-11.82,161.8-15.43,22.1-39.17,39.52-65.12,48.6-65.04,22.75-134.56-5.03-166.75-65.86-4.56-8.61-8.27-16.21-9.97-26.28-2.32-13.74-12.7-46.92,6.14-59.29,7.43-4.88,19.37-5.27,27.29-1.96,12.03,5.02,17.59,18.18,16.84,30.26-1.86,29.81,25.41,62,51.23,70.71,40.86,13.79,83.94-1.52,102.13-38.1,17.51-35.23,8.14-64.61-.46-99.74-3.25-13.27-17.93-38.75-26.15-50.19-11.24-15.66-24.26-28.55-39.37-40.53Z"/>
</svg>