<?xml version="1.0" encoding="UTF-8"?>
<svg id="Capa_1" data-name="Capa 1" xmlns="http://www.w3.org/2000/svg" viewBox="0 0 600 600">
  <defs>
    <style>
      .cls-1 {
        fill: #f44250;
      }

      .cls-2 {
        fill: #121212;
      }
    </style>
  </defs>
  <path class="cls-1" d="M480,287.09c0,16.54-6.71,31.51-17.57,42.34-10.86,10.84-25.86,17.54-42.43,17.54s-31.57,6.69-42.42,17.53c-10.86,10.84-17.58,25.81-17.58,42.35s-6.71,31.51-17.57,42.34c-10.86,10.84-25.86,17.54-42.43,17.54s-31.57-6.71-42.42-17.54c-10.86-10.83-17.58-25.8-17.58-42.34s6.72-31.51,17.58-42.35c10.85-10.84,25.85-17.53,42.42-17.53s31.57-6.71,42.43-17.54c10.86-10.83,17.57-25.8,17.57-42.34,0-33.08-26.86-59.88-60-59.88-16.57,0-31.57-6.71-42.42-17.54-10.86-10.83-17.58-25.8-17.58-42.34s6.72-31.51,17.58-42.35c10.85-10.84,25.85-17.53,42.42-17.53,33.14,0,60,26.8,60,59.88,0,16.54,6.72,31.51,17.58,42.34,10.85,10.84,25.85,17.54,42.42,17.54,33.14,0,60,26.8,60,59.88Z"/>
  <path class="cls-2" d="M240,287.09c0-33.07-26.86-59.88-60-59.88s-60,26.81-60,59.88,26.86,59.88,60,59.88,60-26.81,60-59.88Z"/>
  <path class="cls-2" d="M120,406.85c0-33.07-26.86-59.88-60-59.88S0,373.78,0,406.85s26.86,59.88,60,59.88,60-26.81,60-59.88Z"/>
  <path class="cls-2" d="M600,406.85c0-33.07-26.86-59.88-60-59.88s-60,26.81-60,59.88,26.86,59.88,60,59.88,60-26.81,60-59.88Z"/>
</svg>