<?xml version="1.0" encoding="UTF-8"?>
<svg id="Capa_1" data-name="Capa 1" xmlns="http://www.w3.org/2000/svg" viewBox="0 0 600 600">
  <defs>
    <style>
      .cls-1 {
        fill: #62dafb;
      }
    </style>
  </defs>
  <path class="cls-1" d="M191.53,32.89c8.82,1.71,17.43,3.93,25.98,7.44s16.42,7.53,24.33,12.27c21.34,12.88,40.13,28.56,58.2,46.06,18.09-17.46,37.13-33.42,58.67-46.32,16.2-9.61,31.76-16.26,50.02-19.45h21.25c42.8,7.92,54.86,49.18,55.15,87.78.15,26.64-4.35,52.82-10.78,78.64,26.64,7.63,52.43,17.25,75.95,31.45,8.35,5.13,16.12,10.66,23.35,17.26,11.34,10.34,25.57,29.48,25.95,44.38l.1,3.68c0,.22.14.36.29.33v7.19c-.69.43-.16,1.39-.25,2.22-2.87,27.51-25.38,48.32-47.57,62.18-23.95,14.85-50.59,24.81-77.82,32.62,5.69,22.81,9.74,45.39,10.65,68.97,1.59,41.14-8.63,89.33-55.65,97.52h-19.69c-18.52-2.88-34.88-9.96-51.25-19.7-21.44-12.89-40.32-28.71-58.37-46.14-17.8,17.23-36.16,32.58-57.07,45.38-16.73,10.09-33.37,17.45-52.38,20.47h-19.69c-45.18-7.67-56.57-52.57-55.94-92.54.47-25.21,4.6-49.16,10.79-73.96-39.88-11.28-96.41-33.43-117.72-71.26-5.75-10.21-8.88-22.16-7.84-33.9,2.52-28.36,24.83-49.11,47.58-63.43,24-14.91,50.84-24.92,77.99-32.71-6.22-24.9-10.39-49.11-10.8-74.51-.17-24.09,3.42-50.99,18.68-70.43,8.91-11.35,21.46-18.82,35.7-21.14.36-.06.57-.13.63-.34h21.56ZM231.09,180.46c15.8-22.43,32.43-43.16,50.73-63.1-11.8-11.54-23.87-21.94-36.95-31.49-9.34-6.73-18.85-12.77-29.18-17.8-19.69-9.54-47.76-17.44-62.76,4.03-20.14,28.83-10.38,88.1-1.86,120.79,26.64-6,53.1-9.94,80.02-12.43ZM455.93,159.65c1.8-11.74,2.92-22.88,3.12-34.54.18-17.61-1.87-40-12.86-54.33-15.52-20.23-43.57-11.7-62.8-2.2-10.16,5.05-19.52,11.04-28.74,17.72-12.92,9.51-24.96,19.87-36.36,31.09,18.55,20.13,35.13,41,50.75,63.07,27.06,2.48,53.54,6.48,80.01,12.42,2.85-11.19,5.08-21.89,6.88-33.23ZM334.92,178.06c-11.34-15.07-22.61-28.57-34.86-41.95-12.52,13.62-23.87,27.4-34.96,42.01,23.61-1.1,46.29-1.01,69.82-.06ZM354.61,394.51c20.72-30.5,38.74-61.76,54.57-94.54-15.99-33.13-34.02-64.3-54.57-94.56-36.52-2.66-72.83-2.67-109.13.02-20.69,30.45-38.74,61.76-54.56,94.52,16.03,33.18,33.97,64.23,54.58,94.55,36.33,2.66,72.61,2.69,109.11,0ZM177.09,269.24c11.03-21.12,22.29-40.67,34.91-60.44-18.4,2.28-36.01,5.29-53.82,9.25,5.58,17.63,11.7,34.24,18.9,51.19ZM441.91,218.02c-18.07-3.98-35.43-6.98-53.77-9.21,12.64,19.88,24.04,39.57,34.89,60.48,7.12-16.94,13.43-33.8,18.88-51.27ZM71.4,351.48c9.46,5.1,18.98,9.35,29.02,13.26,10.64,4.08,21.27,7.62,32.43,10.72,8.11-26.04,17.94-50.96,29.24-75.51-11.4-24.76-21.18-49.66-29.25-75.5-12.82,3.6-25,7.7-37.14,12.61-8.92,3.64-17.35,7.55-25.76,12.18-20.97,11.56-52.93,34.78-41.4,62.69,7.18,17.38,26.84,30.81,42.85,39.55ZM560.44,271.57c-5.28-5.54-11.08-10.13-17.41-14.47-9.6-6.49-19.68-11.75-30.3-16.51-14.78-6.52-29.86-11.78-45.47-16.13-8.12,26.01-17.88,50.83-29.24,75.51,11.31,24.56,21.13,49.5,29.24,75.52,15.67-4.4,30.87-9.67,45.74-16.26,10.94-4.91,21.29-10.37,31.11-17.13,6.64-4.65,12.73-9.6,18.09-15.64,16.68-18.81,15.25-37.01-1.76-54.87ZM441.93,381.9c-5.57-17.65-11.77-34.39-18.91-51.25-10.94,21.04-22.3,40.68-34.9,60.47,18.39-2.24,35.9-5.28,53.81-9.22ZM211.96,391.11c-12.79-20.18-24-39.54-34.86-60.44-7.28,17.14-13.45,33.91-18.91,51.22,18.17,4,35.68,7.02,53.77,9.22ZM218.02,530.7c9.66-4.9,18.55-10.64,27.35-17.01,12.93-9.49,24.97-19.86,36.45-31.16-18.57-20.16-35.16-41.05-50.75-63.08-27.09-2.48-53.65-6.49-80.01-12.42-3.92,15.47-6.87,30.61-8.61,46.26-1.25,11.56-1.77,22.75-1.09,34.28.93,13.77,3.64,29.05,11.73,40.46,15.58,21.98,45.06,12.76,64.93,2.67ZM447.22,527.76c8.37-12.01,10.96-28.36,11.67-42.8.51-11.39-.16-22.43-1.47-33.82-1.79-14.92-4.63-29.41-8.38-44.1-26.51,5.97-53.03,9.94-80.01,12.43-15.66,22.17-32.38,43.13-50.75,63.09,11.61,11.34,23.49,21.62,36.36,31.06,9.07,6.58,18.27,12.48,28.25,17.49,19.95,9.94,48.93,18.71,64.32-3.35ZM334.97,421.84c-23.56,1.02-46.38,1.02-69.82-.01,11.21,14.85,22.53,28.47,34.9,41.98,12.33-13.4,23.67-27.12,34.92-41.97Z"/>
  <ellipse class="cls-1" cx="300.05" cy="299.96" rx="53.49" ry="53.5"/>
</svg>