<?xml version="1.0" encoding="UTF-8"?>
<svg id="Capa_1" data-name="Capa 1" xmlns="http://www.w3.org/2000/svg" viewBox="0 0 600 600">
  <defs>
    <style>
      .cls-1 {
        fill: #635bfe;
      }
    </style>
  </defs>
  <g>
    <path class="cls-1" d="M436.52,269.69c-6.51,3.45-12.74,4.93-20.13,6.25l37.99,38.43-26.7,40.93-157.69-157.65,29.8-29.76,10.18,6.42c.67-19.96,11.53-37.18,28.96-46.55,23.84-12.83,52.05-6.64,73.85,7.85,17.18,11.42,31.39,26.6,41.89,44.31,5.56,9.38,9.13,19.13,10.75,29.7,3.7,24.13-7.5,47.78-28.91,60.08ZM413.38,204.3c-8.65-17.07-27.62-34.44-47.4-35.44-8.41-.43-15.7,3.09-20.88,9.62-4.58,5.77-7.39,12.45-6.64,19.89l50.21,49.92c7.77.42,14.51-2.67,20.29-7.65,11.33-9.77,10.67-24.03,4.43-36.34Z"/>
    <path class="cls-1" d="M525.25,125.97c15.62-12.1,26.91-28.18,33.59-47.12l27.02,26.83c-5.55,20.42-20.17,39.7-36.16,53.1-27.08,22.69-60.05,24.15-89.39,4.75-24.13-15.95-45.16-41.46-49.89-70.68-4.52-27.91,7.9-53.7,31.35-69.03,19.1-12.49,41.06-11.99,61.61-3.37,16.91,7.1,31.23,19.12,43.71,32.5,1.7,1.82,2.87,3.9,5.44,5.73l-66.14,66.23c11.52,10.45,26.46,10.67,38.86,1.06ZM495.84,65.53c-4.58-4.53-8.91-7.48-14.14-9.49-5.89-2.06-12.1-2.27-17.84.4-11.09,5.16-16.23,17.68-12.4,29.25,1.9,5.74,5.22,10.64,9.62,14.72l34.76-34.87Z"/>
  </g>
  <g>
    <g>
      <path class="cls-1" d="M34.22,514.8l-9.51-9.51c-15.91-15.91-13.22-50.6,3.8-69.39,12.96-16.09,29.46-28.81,48.43-37.08l31.64,31.75c-15.51,5.07-29.26,12.93-40.98,23.84-4.73,4.6-11.21,11.97-6.67,18.36,5.16,7.27,14.8,3.28,22.05-.15l20.1-9.5c6.85-3.24,13.83-5.27,21.33-6.18,9.99-1.21,19.7.77,28.21,6.24s15.36,12.79,19.97,21.86c10.86,21.36,2.7,44.69-11.52,62.42-14,17.11-32.1,29.97-52.85,38.35l-32.14-32.18c14.27-4.37,27.26-10.36,39.15-18.87,5.64-4.28,10.78-8.71,14.45-14.58,2.33-3.79,2.79-8.14.84-11.42-4.87-8.19-14.77-5.56-22.45-2.09l-21.66,9.78c-6.95,3.14-13.89,5.16-21.36,6.24-11.41,1.65-21.58-1.69-30.83-7.9Z"/>
      <path class="cls-1" d="M221.01,428.77c5.81-4.48,9.51-10.27,12.96-16.89l27.32,27.29c-3.18,11.15-15.45,25.51-24.08,32.47-18.96,15.28-44.96,14.28-62.96-2.08l-110.16-110.36,25.92-39.94,29.3,29.25,25.75-25.59,28.74,28.78-25.68,25.73,50.47,50.3c6.89,5.78,15.22,6.6,22.43,1.04Z"/>
    </g>
    <path class="cls-1" d="M307.85,396.61l-33.8,33.89-118.28-118.28,29.07-29.19,12.26,7.54c-4.78-16.04,3.64-30.38,18.15-37.96l31.11,31.06c-11.68,6.38-20.61,18.93-18.64,32.8l80.12,80.12Z"/>
    <g>
      <polygon class="cls-1" points="212.53 165.31 239.93 192.88 213.31 234.03 185.75 206.51 211.77 166.07 212.53 165.31"/>
      <rect class="cls-1" x="275.69" y="202.84" width="48.06" height="167.36" transform="translate(-114.81 295.85) rotate(-45)"/>
    </g>
  </g>
</svg>