<?xml version="1.0" encoding="UTF-8"?>
<svg id="Capa_1" data-name="Capa 1" xmlns="http://www.w3.org/2000/svg" viewBox="0 0 600 600">
  <defs>
    <style>
      .cls-1 {
        fill: #fff;
      }

      .cls-2 {
        fill: #107c41;
      }
    </style>
  </defs>
  <path d="M128.59,485.77h14.29s-.01,92.84-.01,92.84c0,4.1,3.28,7.1,7.31,7.1h414.07c4.23,0,7.16-3.39,7.16-7.5V158.08c0-.55-.07-.73-.22-.81-.19-.1-.36-.12-.85-.12l-119.86.05c-12.03,0-21.91-9.28-21.91-21.45V15.2c-.01-.51-.08-.69-.23-.77-.19-.11-.34-.11-.88-.11H150.18c-4.19,0-7.32,3.11-7.32,7.31l.03,178.33h-14.29s0-178.69,0-178.69C128.59,9.12,138.63,0,150.52,0l286.25.04c5.76,0,11.15,2.11,15.18,6.14l127.42,127.41c4.01,4.01,6.33,9.39,6.33,15.18l-.02,430.17c0,11.66-9.87,21.06-21.4,21.06l-414.46-.02c-12.18,0-21.31-10.17-21.3-22.08l.09-92.14ZM450.33,142.88h118.13s-125.63-125.61-125.63-125.61v119.19c.63,3.86,3.37,6.41,7.49,6.42Z"/>
  <path d="M300.04,264.33l.02-14.25,21.1-.07c4.26-.01,7.5,3.27,7.38,7.38-.11,3.85-3.27,6.94-7.39,6.94h-21.12Z"/>
  <path d="M300.04,307.18l.02-14.25,21.1-.07c4.26-.01,7.5,3.27,7.39,7.38-.11,3.85-3.27,6.94-7.39,6.94h-21.12Z"/>
  <path d="M300.04,350.04l.02-14.25,21.1-.07c4.26-.01,7.5,3.27,7.38,7.38-.11,3.85-3.27,6.94-7.39,6.94h-21.12Z"/>
  <path d="M300.04,392.89l.02-14.26,21.1-.07c4.26-.01,7.5,3.27,7.39,7.38-.11,3.85-3.27,6.94-7.39,6.94h-21.12Z"/>
  <path d="M300.04,435.74l.02-14.26,21.1-.07c4.26-.01,7.5,3.27,7.38,7.38-.11,3.85-3.27,6.94-7.39,6.94h-21.12Z"/>
  <path d="M420.94,250c4.43,0,7.51,3.01,7.59,7.09.07,3.71-2.91,7.2-7.07,7.2h-71.33c-4.12.02-7.15-3.16-7.26-6.88-.12-4.05,2.98-7.39,7.25-7.39l70.82-.02Z"/>
  <path d="M520.93,250c4.43,0,7.51,3.01,7.59,7.09.07,3.71-2.91,7.2-7.07,7.2h-71.33c-4.13.02-7.15-3.16-7.26-6.88-.12-4.05,2.98-7.39,7.25-7.39l70.82-.02Z"/>
  <path d="M421.31,292.88c4.3,0,7.16,3.27,7.22,7.06s-2.92,7.21-7.07,7.21l-71.33.02c-4.13,0-7.15-3.17-7.26-6.9-.12-4.04,2.98-7.39,7.25-7.39h71.19Z"/>
  <path d="M521.3,292.88c4.42,0,7.33,3.48,7.22,7.36s-3.24,6.94-7.42,6.94h-70.98c-4.12-.02-7.15-3.17-7.26-6.91-.12-4.04,2.98-7.39,7.25-7.39h71.19Z"/>
  <path d="M420.94,335.71c4.43,0,7.51,3.01,7.59,7.09.07,3.71-2.91,7.2-7.07,7.2h-71.33c-4.12.02-7.15-3.16-7.26-6.88-.12-4.05,2.98-7.39,7.25-7.39l70.82-.02Z"/>
  <path d="M520.93,335.71c4.43,0,7.51,3.01,7.59,7.09.07,3.71-2.91,7.2-7.07,7.2h-71.33c-4.12.02-7.15-3.16-7.26-6.88-.12-4.05,2.98-7.39,7.25-7.39l70.82-.02Z"/>
  <path d="M420.94,378.56c4.44,0,7.52,3.04,7.59,7.08s-3.12,7.24-7.42,7.24l-70.98-.02c-4.12,0-7.15-3.16-7.26-6.89-.12-4.05,2.98-7.39,7.25-7.39l70.82-.03Z"/>
  <path d="M520.93,378.56c4.43,0,7.51,3.01,7.59,7.09.07,3.7-2.91,7.21-7.07,7.21l-71.66-.02c-4.11,0-6.99-3.57-6.93-7.2.07-3.93,3.11-7.06,7.26-7.06l70.82-.02Z"/>
  <path d="M420.94,421.42c4.43,0,7.51,3.01,7.59,7.09.07,3.71-2.91,7.2-7.07,7.2h-71.33c-4.13.02-7.15-3.16-7.26-6.88-.12-4.05,2.98-7.39,7.25-7.39l70.82-.02Z"/>
  <path d="M521.3,421.44c4.3,0,7.16,3.27,7.22,7.06.06,3.76-2.92,7.21-7.07,7.21l-71.33.02c-4.13,0-7.15-3.17-7.26-6.9-.12-4.04,2.98-7.39,7.25-7.39h71.19Z"/>
  <g>
    <path class="cls-2" d="M128.6,199.96h14.29s129.28.15,129.28.15c15.38.02,27.72,13.03,27.79,28.17l.1,21.79-.02,14.25.02,28.6-.02,14.25.02,28.6-.02,14.25.02,28.6-.02,14.26.02,28.6-.02,14.26-.07,21.46c-.05,15.98-12.98,28.53-28.88,28.54l-128.21.02h-14.29s-85.63-.03-85.63-.03c-15.26,0-28.59-12.27-28.6-27.86l-.06-229.46c0-16.02,13.25-28.44,29.04-28.44h85.25ZM233.59,428.48l-54.15-86.33,52.86-84.94-38.05-.08-29.19,52.51-6.92,13.91-6.49-13.59-27.22-52.83-41.44.1,51.51,85.42-56.29,85.9,40.75.06,33.49-60.24c1.63-2.59,2.63-4.97,4.03-7.94l4.15,8.2,32.51,60,40.43-.14Z"/>
    <path class="cls-1" d="M233.59,428.48l-40.43.14-32.51-60-4.15-8.2c-1.41,2.97-2.41,5.35-4.03,7.94l-33.49,60.24-40.75-.06,56.29-85.9-51.51-85.42,41.44-.1,27.22,52.83,6.49,13.59,6.92-13.91,29.19-52.51,38.05.08-52.86,84.94,54.15,86.33Z"/>
  </g>
</svg>