<?xml version="1.0" encoding="UTF-8"?>
<svg id="Capa_1" data-name="Capa 1" xmlns="http://www.w3.org/2000/svg" viewBox="0 0 852.69 852.17">
  <defs>
    <style>
      .cls-1 {
        stroke: #000;
        stroke-miterlimit: 10;
        stroke-width: 7px;
      }
    </style>
  </defs>
  <path d="M137.67,342.17v48.69c0,7.27,16.89,27.07,23.06,31.59,30.56,22.44,52.4.71,82.43-4.68,37.45-6.73,72.35,4.24,102.01,26.88,6.86-2.2,11.54-7.66,17.96-11.11,42.52-22.91,82.72-24.44,125.25-.49,4.59,2.58,15.31,12.09,19.04,11.72,29.6-22.6,64.77-33.71,102.14-26.99,29.96,5.39,51.6,27.31,82.43,4.68,6.17-4.54,23.06-24.32,23.06-31.59v-48.69h30.74v45.27c0,27.91-27.51,58.87-52.51,68.77-49.09,19.45-73.11-13.95-115.74-9.82-15.97,1.55-40.59,11.56-50.19,24.44,8.98,13.43,15.39,29.21,18.1,45.21,5.07,29.92-1.37,61.43-37.94,62-57.59.89-43.23-77.02-21.5-108.39-25.77-25.43-67.13-30.2-99.32-14.23-7.8,3.87-12.77,9.19-20.02,13.35,3.21,9.74,9.26,17.2,12.62,27.22,9.86,29.39,13.39,77.57-27.47,81.71-61.72,6.24-50.7-73.58-26.48-106.86-9.81-13.04-33.73-22.84-50.19-24.44-43.8-4.24-66.18,29.45-115.74,9.82-24.99-9.9-52.51-40.86-52.51-68.77v-45.27h30.77v-.02ZM347.75,497.63c-2.99-2.87-5.8,6.48-6.41,8.08-3.05,8.06-11.25,39.22.46,41.47,25.23,4.83,10.08-37.77,5.94-49.55h.01ZM514.74,545.02c5.52-5.8-.97-37.61-5.05-44.46-1.3-2.18-1.71-3.53-4.73-2.93-3.42,11.29-17.45,46.02-.06,50.57,2.49.71,8.44-1.69,9.86-3.18h-.02Z"/>
  <path class="cls-1" d="M218.27,277.38c-4.3-4.3-11.27-4.3-15.57,0-4.3,4.3-4.3,11.27,0,15.57l47.21,47.18-47.18,47.21c-4.3,4.3-4.3,11.27,0,15.57,4.3,4.3,11.27,4.3,15.57,0l47.18-47.21,47.21,47.18c4.3,4.3,11.27,4.3,15.57,0,4.3-4.3,4.3-11.27,0-15.57l-47.21-47.18,47.18-47.21c4.3-4.3,4.3-11.27,0-15.57-4.3-4.3-11.27-4.3-15.57,0l-47.18,47.21-47.21-47.18Z"/>
  <path class="cls-1" d="M379.13,277.38c-4.3-4.3-11.27-4.3-15.57,0-4.3,4.3-4.3,11.27,0,15.57l47.21,47.18-47.18,47.21c-4.3,4.3-4.3,11.27,0,15.57,4.3,4.3,11.27,4.3,15.57,0l47.18-47.21,47.21,47.18c4.3,4.3,11.27,4.3,15.57,0,4.3-4.3,4.3-11.27,0-15.57l-47.21-47.18,47.18-47.21c4.3-4.3,4.3-11.27,0-15.57-4.3-4.3-11.27-4.3-15.57,0l-47.18,47.21-47.21-47.18Z"/>
  <path class="cls-1" d="M539.9,277.38c-4.3-4.3-11.27-4.3-15.57,0-4.3,4.3-4.3,11.27,0,15.57l47.21,47.18-47.18,47.21c-4.3,4.3-4.3,11.27,0,15.57,4.3,4.3,11.27,4.3,15.57,0l47.18-47.21,47.21,47.18c4.3,4.3,11.27,4.3,15.57,0,4.3-4.3,4.3-11.27,0-15.57l-47.21-47.18,47.18-47.21c4.3-4.3,4.3-11.27,0-15.57-4.3-4.3-11.27-4.3-15.57,0l-47.18,47.21-47.21-47.18Z"/>
</svg>