<?xml version="1.0" encoding="UTF-8"?>
<svg id="Capa_1" data-name="Capa 1" xmlns="http://www.w3.org/2000/svg" viewBox="0 0 842 596">
  <defs>
    <style>
      .cls-1 ***REMOVED***
        fill: #fff;
      ***REMOVED***
    </style>
  </defs>
  <rect class="cls-1" y="595" width="842" height="1"/>
  <g>
    <path d="M197.04,232.9v37.77c0,5.64,13.1,21,17.89,24.51,23.71,17.41,40.65.55,63.95-3.63,29.05-5.22,56.13,3.29,79.14,20.85,5.32-1.71,8.95-5.94,13.93-8.62,32.99-17.77,64.17-18.96,97.17-.38,3.56,2,11.88,9.38,14.77,9.09,22.96-17.53,50.25-26.15,79.24-20.94,23.24,4.18,40.03,21.19,63.95,3.63,4.79-3.52,17.89-18.87,17.89-24.51v-37.77h23.85v35.12c0,21.65-21.34,45.67-40.74,53.35-38.08,15.09-56.72-10.82-89.79-7.62-12.39,1.2-31.49,8.97-38.94,18.96,6.97,10.42,11.94,22.66,14.04,35.07,3.93,23.21-1.06,47.66-29.43,48.1-44.68.69-33.54-59.75-16.68-84.09-19.99-19.73-52.08-23.43-77.05-11.04-6.05,3-9.91,7.13-15.53,10.36,2.49,7.56,7.18,13.34,9.79,21.12,7.65,22.8,10.39,60.18-21.31,63.39-47.88,4.84-39.33-57.08-20.54-82.9-7.61-10.12-26.17-17.72-38.94-18.96-33.98-3.29-51.34,22.85-89.79,7.62-19.39-7.68-40.74-31.7-40.74-53.35v-35.12h23.85ZM360.02,353.5c-2.32-2.23-4.5,5.03-4.97,6.27-2.37,6.25-8.73,30.43.36,32.17,19.57,3.75,7.82-29.3,4.61-38.44ZM489.57,390.27c4.28-4.5-.75-29.18-3.92-34.49-1.01-1.69-1.33-2.74-3.67-2.27-2.65,8.76-13.54,35.7-.05,39.23,1.93.55,6.55-1.31,7.65-2.47Z"/>
    <path d="M416.76,180.27c67.25-4.66,75.71,95.4,12.71,102.85-74.66,8.82-79.92-98.19-12.71-102.85ZM418.04,204.08c-36.35,4.47-31.38,57.45,3.56,56.69,38.48-.84,34.41-61.36-3.56-56.69Z"/>
    <path d="M294.81,180.26c66.56-1.14,70.49,96.8,8.89,102.99-76.21,7.66-77.29-101.83-8.89-102.99ZM293.44,204.06c-24.33,3.36-34.93,32.81-15.58,49.4,23.78,20.39,57.57-6.43,42.95-35-4.77-9.32-16.97-15.84-27.37-14.4Z"/>
    <path d="M545.14,180.4c66.62-1.03,68.31,96.82,9.03,102.85-77.54,7.88-78.44-101.77-9.03-102.85ZM541.25,204.07c-42.55,6.95-20.83,74.43,18.28,52.74,28.26-15.68,11.63-57.62-18.28-52.74Z"/>
  </g>
</svg>