<svg xmlns="http://www.w3.org/2000/svg" xmlns:xlink="http://www.w3.org/1999/xlink" width="853" zoomAndPan="magnify" viewBox="0 0 639.75 639.000003" height="852" preserveAspectRatio="xMidYMid meet" version="1.0"><path fill="#ffffff" d="M 103.691406 256.132812 L 103.691406 292.609375 C 103.691406 298.054688 116.34375 312.890625 120.96875 316.277344 C 143.859375 333.085938 160.222656 316.808594 182.71875 312.769531 C 210.777344 307.726562 236.921875 315.945312 259.140625 332.90625 C 264.28125 331.257812 267.789062 327.167969 272.597656 324.585938 C 304.449219 307.421875 334.566406 306.273438 366.429688 324.21875 C 369.867188 326.148438 377.898438 333.273438 380.691406 332.996094 C 402.867188 316.066406 429.214844 307.742188 457.210938 312.777344 C 479.65625 316.816406 495.867188 333.238281 518.964844 316.285156 C 523.585938 312.882812 536.242188 298.0625 536.242188 292.617188 L 536.242188 256.140625 L 559.269531 256.140625 L 559.269531 290.054688 C 559.269531 310.964844 538.660156 334.160156 519.933594 341.574219 C 483.15625 356.144531 465.160156 331.125 433.222656 334.21875 C 421.261719 335.378906 402.816406 342.878906 395.625 352.527344 C 402.351562 362.589844 407.152344 374.410156 409.183594 386.398438 C 412.980469 408.8125 408.15625 432.417969 380.761719 432.84375 C 337.617188 433.511719 348.375 375.144531 364.652344 351.644531 C 345.347656 332.59375 314.363281 329.019531 290.246094 340.984375 C 284.402344 343.882812 280.679688 347.867188 275.25 350.984375 C 277.652344 358.28125 282.1875 363.871094 284.703125 371.375 C 292.089844 393.394531 294.734375 429.488281 264.125 432.589844 C 217.886719 437.265625 226.140625 377.46875 244.285156 352.535156 C 236.9375 342.765625 219.015625 335.425781 206.6875 334.226562 C 173.871094 331.050781 157.105469 356.289062 119.976562 341.582031 C 101.257812 334.164062 80.640625 310.972656 80.640625 290.0625 L 80.640625 256.148438 L 103.691406 256.148438 Z M 261.074219 372.597656 C 258.835938 370.449219 256.730469 377.453125 256.273438 378.652344 C 253.988281 384.6875 247.84375 408.03125 256.617188 409.71875 C 275.519531 413.335938 264.167969 381.421875 261.066406 372.597656 Z M 386.175781 408.101562 C 390.3125 403.753906 385.449219 379.925781 382.394531 374.792969 C 381.417969 373.160156 381.113281 372.148438 378.851562 372.597656 C 376.289062 381.054688 365.777344 407.074219 378.804688 410.484375 C 380.671875 411.015625 385.128906 409.214844 386.191406 408.101562 Z M 386.175781 408.101562 " fill-opacity="1" fill-rule="nonzero"/><path fill="#ffffff" d="M 315.867188 205.308594 C 380.8125 200.808594 388.980469 297.433594 328.140625 304.632812 C 256.039062 313.152344 250.960938 209.8125 315.867188 205.308594 Z M 317.105469 228.300781 C 282 232.617188 286.800781 283.777344 320.542969 283.042969 C 357.703125 282.234375 353.777344 223.792969 317.105469 228.300781 Z M 317.105469 228.300781 " fill-opacity="1" fill-rule="nonzero"/><path fill="#ffffff" d="M 198.101562 205.304688 C 262.378906 204.203125 266.167969 298.78125 206.6875 304.761719 C 133.089844 312.15625 132.046875 206.425781 198.101562 205.304688 Z M 196.78125 228.289062 C 173.289062 231.53125 163.046875 259.96875 181.738281 275.992188 C 204.699219 295.679688 237.332031 269.78125 223.210938 242.191406 C 218.605469 233.195312 206.828125 226.894531 196.78125 228.289062 Z M 196.78125 228.289062 " fill-opacity="1" fill-rule="nonzero"/><path fill="#ffffff" d="M 439.839844 205.4375 C 504.167969 204.441406 505.800781 298.933594 448.558594 304.761719 C 373.679688 312.371094 372.8125 206.488281 439.839844 205.4375 Z M 436.085938 228.292969 C 394.996094 235.007812 415.972656 300.167969 453.734375 279.222656 C 481.027344 264.082031 464.964844 223.582031 436.085938 228.292969 Z M 436.085938 228.292969 " fill-opacity="1" fill-rule="nonzero"/></svg>