<?xml version="1.0" encoding="UTF-8"?>
<svg id="Capa_1" data-name="Capa 1" xmlns="http://www.w3.org/2000/svg" viewBox="0 0 852.69 852.17">
  <path d="M137.67,392.55v48.69c0,7.27,16.89,27.07,23.06,31.59,30.56,22.44,52.4.71,82.43-4.68,37.45-6.73,72.35,4.24,102.01,26.88,6.86-2.2,11.54-7.66,17.96-11.11,42.52-22.91,82.72-24.44,125.25-.49,4.59,2.58,15.31,12.09,19.04,11.72,29.6-22.6,64.77-33.71,102.14-26.99,29.96,5.39,51.6,27.31,82.43,4.68,6.17-4.54,23.06-24.32,23.06-31.59v-48.69h30.74v45.27c0,27.91-27.51,58.87-52.51,68.77-49.09,19.45-73.11-13.95-115.74-9.82-15.97,1.55-40.59,11.56-50.19,24.44,8.98,13.43,15.39,29.21,18.1,45.21,5.07,29.92-1.37,61.43-37.94,62-57.59.89-43.23-77.02-21.5-108.39-25.77-25.43-67.13-30.2-99.32-14.23-7.8,3.87-12.77,9.19-20.02,13.35,3.21,9.74,9.26,17.2,12.62,27.22,9.86,29.39,13.39,77.57-27.47,81.71-61.72,6.24-50.7-73.58-26.48-106.86-9.81-13.04-33.73-22.84-50.19-24.44-43.8-4.24-66.18,29.45-115.74,9.82-24.99-9.9-52.51-40.86-52.51-68.77v-45.27h30.77v-.02ZM347.75,548.01c-2.99-2.87-5.8,6.48-6.41,8.08-3.05,8.06-11.25,39.22.46,41.47,25.23,4.83,10.08-37.77,5.94-49.55h.01ZM514.74,595.4c5.52-5.8-.97-37.61-5.05-44.46-1.3-2.18-1.71-3.53-4.73-2.93-3.42,11.29-17.45,46.02-.06,50.57,2.49.71,8.44-1.69,9.86-3.18h-.02Z"/>
  <path d="M420.89,324.71c86.69-6.01,97.59,122.97,16.38,132.58-96.24,11.37-103.02-126.57-16.38-132.58h0ZM422.54,355.4c-46.86,5.76-40.45,74.05,4.59,73.07,49.6-1.08,44.36-79.09-4.59-73.07h0Z"/>
  <path d="M263.69,324.7c85.8-1.47,90.86,124.78,11.46,132.76-98.24,9.87-99.63-131.26-11.46-132.76h0ZM261.93,355.38c-31.36,4.33-45.03,42.29-20.08,63.68,30.65,26.28,74.21-8.29,55.36-45.12-6.15-12.01-21.87-20.42-35.28-18.56h0Z"/>
  <path d="M586.37,324.88c85.87-1.33,88.05,124.8,11.64,132.58-99.95,10.16-101.11-131.18-11.64-132.58ZM581.36,355.39c-54.85,8.96-26.85,95.94,23.56,67.98,36.43-20.21,14.99-74.27-23.56-67.98h0Z"/>
  <path d="M267.11,223.78c3.92.9,6.83,3.27,8.59,7l15.13,31.99,21.65-20.62c4.22-4.02,10.66-4.15,15.01-.28,2.94,2.63,4.12,6.29,3.81,10.31-5.86,24.11-11.72,48.22-17.57,72.33-2.38-1.94-4.92-3.9-7.6-5.87-2.46-1.81-4.87-3.49-7.23-5.06-5.31-3.07-16.36-8.5-31.32-9-17.52-.58-30.46,5.92-35.8,9-1.99.8-4.33,1.95-6.8,3.59-3.69,2.47-6.33,5.19-8.11,7.34-5.84-24.06-11.68-48.12-17.52-72.18v-3.57c.06-.09.21-.41.25-.58.77-3.9,3.5-7.04,6.85-8.33,3.88-1.49,8.27-.93,11.24,1.89l22.16,21.04,15.18-32.11c.48-1.08,1.45-2.83,3.3-4.33,3.58-2.9,7.74-2.64,8.77-2.55ZM298.91,313.58l11.49-46.35-11.49,10.85c-3.37,2.76-7.54,4.01-12.03,2.94-3.48-.82-7.26-3.21-9.03-6.92l-12.51-26.22-12.5,26.22c-1.89,3.97-6.01,6.43-9.87,7.1-4.63.8-8.83-.86-12.08-3.94l-10.6-10.06,11.51,46.37h67.12Z"/>
  <path d="M427.82,223.78c3.92.9,6.83,3.27,8.59,7l15.13,31.99,21.65-20.62c4.22-4.02,10.66-4.15,15.01-.28,2.94,2.63,4.12,6.29,3.81,10.31-5.86,24.11-11.72,48.22-17.57,72.33-2.38-1.94-4.92-3.9-7.6-5.87-2.46-1.81-4.87-3.49-7.23-5.06-5.31-3.07-16.36-8.5-31.32-9-17.52-.58-30.46,5.92-35.8,9-1.99.8-4.33,1.95-6.8,3.59-3.69,2.47-6.33,5.19-8.11,7.34-5.84-24.06-11.68-48.12-17.52-72.18v-3.57c.06-.09.21-.41.25-.58.77-3.9,3.5-7.04,6.85-8.33,3.88-1.49,8.27-.93,11.24,1.89l22.16,21.04,15.18-32.11c.48-1.08,1.45-2.83,3.3-4.33,3.58-2.9,7.74-2.64,8.77-2.55ZM459.61,313.58l11.49-46.35-11.49,10.85c-3.37,2.76-7.54,4.01-12.03,2.94-3.48-.82-7.26-3.21-9.03-6.92l-12.51-26.22-12.5,26.22c-1.89,3.97-6.01,6.43-9.87,7.1-4.63.8-8.83-.86-12.08-3.94l-10.6-10.06,11.51,46.37h67.12Z"/>
  <path d="M589.28,223.78c3.92.9,6.83,3.27,8.59,7l15.13,31.99,21.65-20.62c4.22-4.02,10.66-4.15,15.01-.28,2.94,2.63,4.12,6.29,3.81,10.31-5.86,24.11-11.72,48.22-17.57,72.33-2.38-1.94-4.92-3.9-7.6-5.87-2.46-1.81-4.87-3.49-7.23-5.06-5.31-3.07-16.36-8.5-31.32-9-17.52-.58-30.46,5.92-35.8,9-1.99.8-4.33,1.95-6.8,3.59-3.69,2.47-6.33,5.19-8.11,7.34-5.84-24.06-11.68-48.12-17.52-72.18v-3.57c.06-.09.21-.41.25-.58.77-3.9,3.5-7.04,6.85-8.33,3.88-1.49,8.27-.93,11.24,1.89l22.16,21.04,15.18-32.11c.48-1.08,1.45-2.83,3.3-4.33,3.58-2.9,7.74-2.64,8.77-2.55ZM621.08,313.58l11.49-46.35-11.49,10.85c-3.37,2.76-7.54,4.01-12.03,2.94-3.48-.82-7.26-3.21-9.03-6.92l-12.51-26.22-12.5,26.22c-1.89,3.97-6.01,6.43-9.87,7.1-4.63.8-8.83-.86-12.08-3.94l-10.6-10.06,11.51,46.37h67.12Z"/>
</svg>